<svg version="1.1" xmlns="http://www.w3.org/2000/svg" xmlns:xlink="http://www.w3.org/1999/xlink" width="2400" height="1600"><defs/><g transform="scale(2,2)"><g id="background-bdfd99a7"><rect fill="white" stroke="none" x="0" y="0" width="1200" height="800" class="dcg-svg-background"/></g><g id="background-images-bdfd99a7"/><g id="graphpaper-bdfd99a7"><g id="axis-bdfd99a7"><g><g><path fill="none" stroke="rgb(0,0,0)" class="dcg-svg-tickmark" paint-order="fill stroke markers" d="" stroke-opacity="0.9" stroke-miterlimit="2" stroke-width="1.5" stroke-dasharray=""/></g></g></g></g><g id="expressions-bdfd99a7"><g id="sketch-bdfd99a7"><title>Expression 1</title><path fill="#c74440" stroke="none" paint-order="stroke fill markers" d="" fill-opacity="0.4"/><g><path fill="none" stroke="#c74440" class="dcg-svg-curve" paint-order="fill stroke markers" d=" M -0.5 392.45597167644735 L -0.5 392.45597167644735 L 11.511718750000048 394.1259027302291 L 15.906249999999972 394.01745706577225 L 20.886718749999993 393.3439884877863 L 30.847656250000032 391.8387117877658 L 35.24218750000005 391.8201862051229 L 39.929687500000064 392.36221139074024 L 52.52734374999993 394.21789912184806 L 56.62890625000004 394.0981475755123 L 61.609374999999964 393.3805580635184 L 71.57031250000001 391.7569049823847 L 75.67187499999993 391.7129718476346 L 80.06640625000004 392.2071543503901 L 94.12890625 394.3324806034401 L 98.23046874999993 394.09826001777907 L 103.21093750000004 393.2431133681219 L 111.70703125000007 391.71415587962656 L 115.80859375 391.58039903949646 L 119.91015625000001 391.987844184677 L 125.76953125000004 393.1765159250228 L 131.62890624999997 394.23898312168984 L 135.73046874999997 394.44296677681047 L 139.83203125 394.07850129871827 L 145.10546875000003 393.0087394002127 L 151.84375000000006 391.67714695141245 L 155.5347451298405 391.4360882195159 L 159.46093749999997 391.71088594072563 L 164.1484375 392.61876227369777 L 172.64453125000003 394.3855515309022 L 176.45312499999997 394.5807679342958 L 180.26171874999997 394.23735642962055 L 184.94921875 393.24612758129274 L 192.85937500000003 391.51875574912935 L 196.66796874999994 391.2883648707353 L 200.4765625 391.62352660671485 L 204.87109374999997 392.5702909574709 L 213.3671875 394.5223736207882 L 216.88281250000003 394.7507044097618 L 220.39843749999994 394.4700935049062 L 224.49999999999997 393.6029244420809 L 234.16796875 391.29015446335063 L 237.68359375000003 391.1107608329717 L 241.19921875000003 391.4670193998437 L 245.30078124999994 392.42816851523486 L 254.08984375 394.6900425011983 L 257.4932610325906 394.95438916062244 L 260.828125 394.6971462430618 L 264.63671874999994 393.857109351698 L 275.76953124999994 390.9864871818368 L 278.9921875 390.9066417595056 L 282.21484375 391.3298869889807 L 286.31640625 392.43731305379265 L 294.51953124999994 394.8476225549992 L 297.7421875 395.2021571255333 L 300.96484375 395.02043647061026 L 304.48046875 394.2530666478726 L 310.046875 392.3721324055091 L 314.73437500000006 391.0103129531611 L 317.95703124999994 390.6012037336982 L 320.88671875 390.72437830273446 L 324.109375 391.3855241030782 L 328.50390624999994 392.8900341823426 L 334.65624999999994 394.9750710917088 L 337.87890625000006 395.4978081229609 L 340.80859374999994 395.4495816375382 L 343.73828125 394.8991217549609 L 347.54687500000006 393.6086899344257 L 355.45703125 390.7127274406608 L 358.38671874999994 390.2427188748203 L 361.31640624999994 390.3157342079911 L 364.24609374999994 390.9296498817244 L 367.76171875 392.21658914033253 L 375.96484374999994 395.463229169165 L 378.89453125 395.95349116774076 L 381.53124999999994 395.88941118164996 L 384.46093749999994 395.2562478907595 L 387.68359375 394.01365206623603 L 396.765625 390.1421932604293 L 399.40234375 389.70567569996274 L 402.03906249999994 389.79734689820083 L 404.67578125 390.41533563446063 L 407.8984375 391.7502032534148 L 417.2734375 396.13575001225973 L 419.91015625 396.5965840122013 L 422.25390625 396.5157146255211 L 424.890625 395.87185482543174 L 427.8203125 394.5809681959873 L 433.09375000000006 391.54693922746367 L 436.60937499999994 389.8192586917455 L 439.24609375 389.0619525771312 L 441.5898437499999 388.91027902606595 L 443.9335937499999 389.2861859656911 L 446.57031249999994 390.2942710127661 L 449.49999999999994 391.9630330784491 L 457.11718749999994 396.5940373110292 L 459.46093749999994 397.368927026309 L 461.8046875 397.5919984639761 L 463.85546875 397.296303881073 L 466.19921875 396.4200987727578 L 468.8359375 394.86821602448316 L 473.23046875 391.60519890505077 L 476.74609374999994 389.2228293237248 L 479.08984375000006 388.1421146703367 L 481.14062500000006 387.68212558435613 L 483.19140624999994 387.7402063670189 L 485.2421875 388.3268995704739 L 487.5859375 389.5887435001784 L 490.2226562499999 391.5875426405123 L 497.83984374999994 397.8331258764384 L 499.89062499999994 398.8269918542147 L 501.94140624999994 399.26700801999954 L 503.69921874999994 399.15285248744874 L 505.45703124999994 398.5771897222681 L 507.50781249999994 397.36057179728226 L 509.8515625 395.37772211701804 L 513.07421875 392.04336846928845 L 516.8828125 388.185024453273 L 518.93359375 386.5926795767247 L 520.69140625 385.68077075012695 L 522.44921875 385.27608231103875 L 524.20703125 385.4280493165825 L 525.96484375 386.14746615826033 L 527.72265625 387.4042306715866 L 529.7734375 389.45354907769644 L 532.1171875 392.34563442327374 L 537.68359375 399.49905714785183 L 539.4414062499999 401.1987660407083 L 541.1992187499999 402.36621121435746 L 542.6640624999999 402.8506050787961 L 544.1289062499999 402.84370746903 L 545.5937499999999 402.3250864781127 L 547.0585937499999 401.29904225848617 L 548.5234375 399.79540566255986 L 550.28125 397.4396931871559 L 552.33203125 394.111808088666 L 558.77734375 383.03760622988653 L 560.2421875 381.1893552262073 L 561.70703125 379.8525606556307 L 563.171875 379.1239134702336 L 564.34375 379.0284239834762 L 565.515625 379.39286603763463 L 566.6875 380.2279678542847 L 567.859375 381.5304494231695 L 569.03125 383.28250535297985 L 570.49609375 386.0539663103177 L 571.9609375 389.38132457332324 L 573.71875 393.9262712140139 L 579.5781249999999 409.6784840241822 L 581.0429687499999 412.7235624869007 L 582.2148437499999 414.61697012910724 L 583.3867187499999 415.9239978234132 L 584.2656249999999 416.46728983712075 L 585.1445312499999 416.60019047021825 L 586.0234375 416.2951524789012 L 586.90234375 415.5295101642669 L 587.7812499999999 414.2859198218691 L 588.6601562499999 412.5527332282781 L 589.5390624999999 410.32429774586717 L 590.4179687499999 407.60117763909886 L 591.2968749999999 404.39029229893487 L 592.1757812499999 400.7049682504527 L 593.0546874999999 396.564903054852 L 594.2265625 390.3831564050493 L 595.3984375 383.5178448454363 L 596.5703125 376.06473057769466 L 598.03515625 366.0932619856499 L 600.0859375 351.36183575049296 L 603.30859375 328.10086306584503 L 604.7734375 318.20453408974964 L 605.9453125 310.86999035297373 L 607.1171875 304.20308793796096 L 607.99609375 299.7176855880415 L 608.875 295.72760632687346 L 609.75390625 292.2760476040259 L 610.6328125 289.4005452684881 L 611.51171875 287.1324853518021 L 612.3906249999999 285.4966950022024 L 613.26953125 284.5111183832032 L 614.1484375 284.1865821473143 L 615.02734375 284.52665382378893 L 615.90625 285.5275951375096 L 616.78515625 287.17841092408935 L 617.6640625 289.46099294428507 L 618.54296875 292.35035654926594 L 619.421875 295.8149668274334 L 620.30078125 299.8171495931069 L 621.1796875 304.313581376472 L 622.3515625 310.99332734520556 L 623.5234375 318.33838482118483 L 624.98828125 328.24432652869723 L 626.74609375 340.8145943803512 L 630.5546874999999 368.2780652955426 L 632.0195312499999 378.1103331725307 L 633.1914062499999 385.41650350910714 L 634.3632812499999 392.1076067224332 L 635.5351562499999 398.0924652509967 L 636.4140624999999 402.0729668353482 L 637.2929687499999 405.5909755214723 L 638.1718749999999 408.6290567696541 L 639.0507812499999 411.17617012856107 L 639.9296874999999 413.22767376612103 L 640.8085937499999 414.78524142389637 L 641.6875 415.85669413019633 L 642.56640625 416.45575022478187 L 643.4453125 416.60169840162365 L 644.32421875 416.31899954873984 L 645.49609375 415.32631577560653 L 646.66796875 413.7044063537647 L 647.83984375 411.5445486503555 L 649.3046875 408.2403175687609 L 651.0625 403.6610459209769 L 656.62890625 388.62830105233957 L 658.09375 385.4102657313383 L 659.55859375 382.771271422229 L 660.7304687499999 381.1369226889529 L 661.9023437499999 379.9583496812004 L 663.0742187499999 379.249442658099 L 664.2689372801653 379.00958085166366 L 665.41796875 379.22468318087726 L 666.8828125 380.0904887850605 L 668.34765625 381.5456166151704 L 670.10546875 383.9258731605277 L 672.15625 387.3125058032849 L 678.0156249999999 397.4702724724724 L 679.7734374999999 399.8195955537139 L 681.2382812499999 401.31685056850904 L 682.7031249999999 402.3359181548331 L 684.1679687499999 402.84732596474873 L 685.6328124999999 402.8471292936807 L 687.0976562499999 402.3560960827547 L 688.85546875 401.18170580879786 L 690.61328125 399.4765685435771 L 692.95703125 396.6293137028005 L 699.109375 388.7905871040123 L 701.16015625 386.91346158110713 L 702.91796875 385.836139903481 L 704.67578125 385.31119821609616 L 706.43359375 385.35454629604334 L 708.19140625 385.94166495974054 L 710.2421874999999 387.2296779365213 L 712.5859375 389.30717478640736 L 717.2734374999999 394.23698568403637 L 719.9101562499999 396.69807939362244 L 721.9609374999999 398.1353437469283 L 724.01171875 399.01741116326673 L 725.8872532516256 399.2819682803247 L 727.8203124999999 399.00735618074697 L 729.8710937499999 398.1566119467538 L 732.2148437499999 396.61117376728384 L 735.4375 393.8857782472912 L 739.83203125 390.18401675329955 L 742.17578125 388.72117298365885 L 744.2265625 387.9226576904735 L 746.331818851727 387.64141668250727 L 748.328125 387.889349213569 L 750.37890625 388.6257951688304 L 753.015625 390.14774938631246 L 757.1171875 393.1835914436118 L 760.92578125 395.80524207813016 L 763.26953125 396.93359050501186 L 765.61328125 397.5241588297918 L 767.6640624999999 397.5520733118566 L 770.0078124999999 397.0378847130258 L 772.6445312499999 395.8669061558596 L 776.1601562499999 393.69024112530496 L 781.43359375 390.42887260472696 L 784.0703125 389.3632100767 L 786.4140625 388.92691527723326 L 788.7578125 389.01770890372234 L 791.1015625 389.6100063776448 L 794.03125 390.91590387471183 L 804.2851562499999 396.1537368304411 L 806.921875 396.602978035605 L 809.265625 396.50248984367164 L 811.90234375 395.85816695965025 L 815.125 394.4823569777589 L 823.9140624999999 390.31642717631684 L 826.5507812499999 389.7580237675144 L 829.1875 389.73078874315564 L 831.82421875 390.22614774169983 L 835.046875 391.4011611881659 L 845.0078125 395.5807804098898 L 847.64453125 395.9670400777425 L 850.28125 395.86293737501325 L 853.2109375 395.20833445083247 L 857.0195312499999 393.75228637901665 L 864.0507812499999 390.92365480324213 L 866.9804687499999 390.3132683172 L 869.9101562499999 390.24418915570016 L 872.8398437500001 390.71775381497235 L 876.35546875 391.84685127280176 L 885.4374999999998 395.11740026141103 L 888.3671874999998 395.5198212746076 L 891.2968749999998 395.40923305154394 L 894.5195312499999 394.73701379683837 L 898.9140624999999 393.21727431337536 L 904.7734374999999 391.22410417856594 L 907.9960937499999 390.65932774365996 L 910.9257812499999 390.6361268158061 L 914.1484374999999 391.1442241006727 L 918.2499999999999 392.37927972621446 L 925.57421875 394.7064090130498 L 928.796875 395.1717890124469 L 932.01953125 395.1024345816321 L 935.53515625 394.45243147925896 L 940.515625 392.9105677547333 L 945.7890625 391.3865881111754 L 949.3046874999999 390.90552096005587 L 952.5273437500001 390.9886158032647 L 956.0429687499999 391.6155652917209 L 961.3164062499999 393.1656906934622 L 966.5898437499999 394.5522382134916 L 970.10546875 394.9435963745902 L 973.328125 394.8048241041388 L 977.1367187499998 394.08919403579154 L 989.7343749999999 391.1493166749397 L 993.2499999999999 391.1976680681162 L 997.0585937499999 391.8139388409132 L 1003.5039062499999 393.53143378857624 L 1008.1914062499999 394.5149397785733 L 1011.5680725708766 394.7513472487209 L 1015.2226562499999 394.47871431820005 L 1019.6171875 393.5669478015386 L 1028.69921875 391.49577558353104 L 1032.5078125 391.29190538470436 L 1036.31640625 391.6500426394986 L 1041.00390625 392.65873783035534 L 1048.62109375 394.32580053404484 L 1052.3508400515839 394.5860943745197 L 1056.23828125 394.30723052228876 L 1060.92578125 393.38788383184044 L 1069.12890625 391.6697407281162 L 1072.9375 391.43678958296243 L 1076.7460937499998 391.71835536208476 L 1081.7265624999998 392.6748396514606 L 1089.6367187499998 394.2393127686216 L 1093.7382812499998 394.442554828717 L 1097.83984375 394.08024316124795 L 1103.40625 392.97680332776116 L 1109.8515625 391.7829861391752 L 1113.953125 391.5648764125781 L 1118.0546875 391.89082861756003 L 1123.62109375 392.9371944699263 L 1130.359375 394.1340090543796 L 1134.4609375 394.3285183281079 L 1138.5625 394.001221009389 L 1144.421875 392.92690313821424 L 1150.8671875 391.8479723934342 L 1154.96875 391.6753587829496 L 1159.36328125 392.04399353069715 L 1165.80859375 393.2175871351069 L 1171.6679687499998 394.0999552882406 L 1175.7695312499998 394.21724611878 L 1180.1640624999998 393.81524489610484 L 1188.66015625 392.31182030627747 L 1193.640625 391.7899793383844 L 1198.03515625 391.8836258561637 L 1199.5 392.03000427970665" stroke-linecap="round" stroke-linejoin="round" stroke-miterlimit="10" stroke-width="2.5" stroke-opacity="0.7" stroke-dasharray=""/></g></g></g><g id="labels-bdfd99a7"/></g></svg>